HIERARCHY
ROOT Hips
{
     OFFSET 21.81140 93.56280 -27.45850
     CHANNELS 6 Xposition Yposition Zposition Zrotation Xrotation Yrotation
     JOINT Spine
     {
          OFFSET 0.00000 11.89050 0.00000
          CHANNELS 3 Zrotation Xrotation Yrotation
          JOINT Spine1
          {
               OFFSET 0.00000 25.65740 0.12766
               CHANNELS 3 Zrotation Xrotation Yrotation
               JOINT HEad
               {
                    OFFSET 0.00000 8.73416 0.01134
                    CHANNELS 3 Zrotation Xrotation Yrotation
                    End Site
                    {
                         OFFSET -0.29000 12.77420 2.51395
                    }
               }
               JOINT LeftShoulder1
               {
                    OFFSET 8.99000 -0.36225 -0.22000
                    CHANNELS 3 Zrotation Xrotation Yrotation
                    JOINT LeftArm
                    {
                         OFFSET 10.28270 -0.00338 0.32212
                         CHANNELS 3 Zrotation Xrotation Yrotation
                         JOINT LeftForeArm
                         {
                              OFFSET 32.76690 0.09914 -1.42434
                              CHANNELS 3 Zrotation Xrotation Yrotation
                              JOINT LeftHand
                              {
                                   OFFSET 27.56430 0.08536 1.02216
                                   CHANNELS 3 Zrotation Xrotation Yrotation
                                   End Site
                                   {
                                        OFFSET 16.74430 -0.60000 1.50291
                                   }
                              }
                         }
                    }
               }
               JOINT RightShoulder
               {
                    OFFSET -8.99000 -0.36225 -0.22000
                    CHANNELS 3 Zrotation Xrotation Yrotation
                    JOINT RightArm
                    {
                         OFFSET -10.28270 -0.00338 0.32212
                         CHANNELS 3 Zrotation Xrotation Yrotation
                         JOINT RightForeArm
                         {
                              OFFSET -32.89710 0.09914 -1.42434
                              CHANNELS 3 Zrotation Xrotation Yrotation
                              JOINT RightHand
                              {
                                   OFFSET -27.49210 0.08536 1.02216
                                   CHANNELS 3 Zrotation Xrotation Yrotation
                                   End Site
                                   {
                                        OFFSET -16.63120 -0.60000 1.50291
                                   }
                              }
                         }
                    }
               }
          }
     }
     JOINT LeftUpLeg
     {
          OFFSET 8.94580 -8.66707 0.10165
          CHANNELS 3 Zrotation Xrotation Yrotation
          JOINT LeftLeg
          {
               OFFSET -0.00000 -44.42270 1.37270
               CHANNELS 3 Zrotation Xrotation Yrotation
               JOINT LeftFoot
               {
                    OFFSET -0.25355 -42.09240 -1.46059
                    CHANNELS 3 Zrotation Xrotation Yrotation
                    JOINT LeftToes
                    {
                         OFFSET -0.04000 -4.41509 8.49910
                         CHANNELS 3 Zrotation Xrotation Yrotation
                         End Site
                         {
                              OFFSET 0.08000 -0.04745 9.77979
                         }
                    }
               }
          }
     }
     JOINT RightUpLeg
     {
          OFFSET -8.94580 -8.66707 0.10165
          CHANNELS 3 Zrotation Xrotation Yrotation
          JOINT RightLeg
          {
               OFFSET -0.00000 -44.42270 1.37270
               CHANNELS 3 Zrotation Xrotation Yrotation
               JOINT RightFoot
               {
                    OFFSET 0.25355 -42.09240 -1.46059
                    CHANNELS 3 Zrotation Xrotation Yrotation
                    JOINT RightToes
                    {
                         OFFSET 0.04000 -4.41509 8.49910
                         CHANNELS 3 Zrotation Xrotation Yrotation
                         End Site
                         {
                              OFFSET -0.08000 -0.13745 9.77979
                         }
                    }
               }
          }
     }
}
MOTION
Frames: 17
Frame Time: 0.01667
7.51547 94.97440 8.27263 17.79550 -26.76190 -21.32610 -19.72810 4.05094 -6.52877 -0.85849 14.18370 -22.06550 4.48077 -26.70840 21.49440 -0.00000 0.00000 -0.00000 -93.67260 -45.85020 -109.67400 -61.23900 24.02870 -55.65280 21.27000 3.91754 -28.02010 35.41270 -3.96643 -12.92370 38.09910 -39.30800 14.25980 -14.70780 -15.31900 19.45480 23.87190 13.80990 13.84070 14.51530 -5.14816 30.56420 -16.78300 79.61500 33.99460 -22.11700 23.94410 5.98787 11.22210 28.89090 -39.47440 -40.00280 -2.10884 6.09072 45.68010 3.84261 -46.31940 -36.72270 -8.00018 -0.28838 -1.78805 -0.17948 13.49440 
6.69529 95.57140 8.54516 18.49360 -30.49060 -26.16070 -21.19370 4.42096 -6.13994 -2.59608 14.19820 -20.59110 1.07268 -24.05800 23.94310 -0.00000 0.00000 -0.00000 -62.25550 -49.75080 -80.80980 -46.71460 5.54540 -67.58840 16.98070 5.63259 -25.14790 32.34790 -4.07626 -14.22940 38.41540 -41.80830 14.42560 -11.88970 -12.86380 26.30750 25.32260 13.84930 12.98380 14.56080 -10.76860 40.14910 53.83990 82.21570 -36.91550 -34.19930 14.57930 6.68702 1.29938 50.48320 -19.01840 -42.06390 -1.06562 9.08408 45.23770 3.11345 -43.18840 -36.62600 -7.07791 0.02663 -1.89433 -0.78328 15.06490 
5.96538 96.25350 8.83564 18.67030 -34.71280 -32.18890 -22.66650 4.67067 -5.40676 -4.54650 14.16270 -18.65030 -2.71829 -21.46770 26.63940 -0.00000 0.00000 -0.00000 -35.73860 -39.73060 -53.02570 -37.03030 -20.94410 -74.24010 9.24201 7.88826 -22.48520 28.22520 -3.86912 -15.18050 39.43590 -43.72050 15.53290 -9.00299 -8.48251 34.13290 26.80450 13.79810 11.82120 16.03580 -14.62430 46.04720 86.80540 78.70480 -68.37440 -43.93020 9.34068 6.73514 -15.62350 60.65410 4.06418 -44.50320 -0.25552 12.21020 44.57220 2.21377 -39.80490 -35.87360 -6.25741 0.29572 -2.09927 -0.62031 16.25640 
5.36131 96.96050 9.18276 17.99540 -39.25050 -39.61070 -23.87920 4.74964 -4.38451 -6.71253 14.10120 -16.30670 -6.51599 -19.38000 29.50780 -0.00000 0.00000 -0.00000 -25.43640 -23.77730 -36.93700 -31.41240 -48.92720 -75.13910 0.15732 10.02120 -20.87170 23.18800 -3.33530 -15.57920 41.57790 -44.78420 18.07230 -6.56377 -2.55266 42.53130 28.38100 13.62250 10.23870 18.05580 -17.42990 50.90360 100.04700 73.31430 -79.05930 -54.16080 5.38447 6.57927 -38.72050 62.76630 33.22600 -47.21270 0.12692 15.12600 43.70870 1.10399 -36.78670 -34.42380 -5.67871 0.46037 -2.35435 0.09486 16.92030 
4.91851 97.61530 9.60414 16.23950 -43.86560 -48.61110 -24.80820 4.61457 -3.14219 -9.11732 13.99520 -13.59510 -9.82526 -18.17400 32.34890 -0.00000 0.00000 -0.00000 -25.06370 -10.23570 -26.29290 -23.78550 -72.00890 -67.04740 -7.18981 11.58050 -20.09130 17.55460 -2.55387 -15.25100 45.08740 -44.71860 22.52810 -4.86498 3.94490 51.02800 29.99410 13.36320 8.49081 20.46320 -19.19260 54.98450 105.65500 67.05810 -80.94440 -63.60290 2.99166 6.53339 -53.31680 58.53610 53.58630 -50.13740 -0.13426 17.40120 42.80410 -0.39411 -34.83220 -32.50690 -5.42560 0.49977 -2.60502 1.08871 17.10670 
4.70025 98.14260 10.10490 13.15420 -48.23910 -59.35390 -25.43060 4.27795 -1.76370 -11.74770 13.81140 -10.55650 -12.16060 -18.02660 34.97100 -0.00000 0.00000 -0.00000 -29.34360 -1.70488 -17.10980 -77.49410 -77.12680 -109.71900 -12.18930 12.52300 -19.01970 11.82080 -1.68262 -14.08370 49.65110 -43.29300 29.05560 -3.88260 9.94008 59.09580 31.49260 13.10280 6.95379 23.35270 -19.87740 58.23360 108.03200 60.61170 -78.53150 -70.74230 2.41054 7.07555 -58.28130 52.84110 63.59470 -53.07500 -1.09717 18.54310 42.03910 -2.58175 -34.37860 -30.57140 -5.52811 0.42975 -2.86450 2.49011 16.79680 
4.74995 98.40630 10.67030 8.56869 -52.08410 -71.89960 -25.81310 3.77140 -0.26680 -14.57620 13.53450 -7.27842 -13.25910 -18.85740 37.32750 -0.00000 0.00000 -0.00000 -35.52550 2.52019 -8.56974 -110.58200 -79.45080 -131.57001 -15.58690 12.85170 -16.49060 6.49618 -0.89859 -12.09380 54.36300 -40.49970 37.31440 -3.43741 14.75660 66.25770 32.74020 12.89560 5.81217 27.06660 -19.37310 59.87960 108.78000 55.33620 -74.35470 -74.20360 3.50685 8.34599 -59.11800 48.25330 68.22980 -55.23340 -3.92419 17.57940 41.36510 -2.72872 -36.09030 -28.04710 -7.25833 -0.06786 -3.30486 5.44949 15.74090 
5.10420 98.27340 11.29470 2.47248 -55.29750 -86.04880 -26.41620 3.14480 1.40394 -17.64330 13.22430 -3.90041 -13.19920 -20.38500 39.55120 -0.00000 0.00000 -0.00000 -42.49410 4.04670 -0.97369 -134.17900 -83.05910 -145.97099 -18.17760 12.53400 -11.73710 1.88389 -0.32459 -9.51558 58.30240 -36.69100 46.72960 -3.36601 18.24460 72.25410 33.72620 12.74180 5.00153 31.76800 -17.60080 58.50140 107.95400 53.24100 -70.52030 -72.68310 5.69659 9.68703 -59.36320 46.16070 70.24360 -56.75480 -7.37436 14.56670 40.70220 -2.67969 -38.47100 -25.31840 -9.80802 -0.67494 -4.16430 11.83520 13.87310 
5.79782 97.68430 11.99030 -5.18673 -57.88760 -101.36900 -27.71930 2.48270 3.22879 -21.00470 13.01060 -0.59388 -12.42690 -22.18910 41.78080 -0.00000 0.00000 -0.00000 -50.11400 4.23617 5.17879 -163.23599 -86.31370 -168.10500 -20.28820 11.59910 -5.01640 -1.97199 0.01009 -6.70863 61.08050 -32.43180 56.75630 -3.63977 20.60400 77.07600 34.52140 12.62160 4.39341 37.24500 -14.70590 52.74690 104.01100 56.44910 -68.32420 -63.68510 8.65491 9.96647 -60.16850 48.86830 68.88530 -57.33290 -13.19800 8.88111 40.06700 2.41761 -41.61610 -20.76640 -14.82020 -1.55801 -5.38254 21.57140 11.95370 
6.88555 96.90050 12.81190 -14.03470 -59.58000 -116.85900 -29.21870 2.11128 5.01827 -24.47550 13.08070 2.49835 -11.69010 -23.81350 43.86240 -0.00000 0.00000 -0.00000 -58.36880 3.80700 9.44485 148.06500 -87.40630 147.98500 -21.49320 10.35620 1.92825 -5.16743 0.14281 -3.98369 62.84320 -28.15290 66.86420 -4.41725 22.13910 80.86390 35.14910 12.54300 3.98408 43.10560 -10.90550 42.35440 90.12410 66.19410 -61.51100 -42.56680 15.86120 8.97034 -48.91880 60.66040 46.92530 -57.92060 -18.34570 2.06088 39.72630 6.98330 -43.33900 -16.36520 -19.65270 -2.02553 -6.67965 31.41850 10.91780 
8.28579 96.03890 14.00170 -22.86470 -60.35040 -130.70100 -30.21990 2.41878 6.43833 -27.68610 13.55640 5.28931 -11.78560 -24.94310 45.25930 -0.00000 0.00000 -0.00000 -66.76700 3.06205 11.59240 124.45700 -86.59710 127.44000 -21.16580 9.37329 7.04910 -7.82061 0.13388 -1.57778 64.01010 -23.91100 76.49180 -5.88107 23.11980 83.75220 35.56150 12.54070 3.87656 49.74720 -5.92049 27.93260 31.80830 74.39930 -3.54735 -16.67790 30.11580 5.33659 9.84154 52.28010 -32.80170 -58.64360 -22.31480 -4.66176 39.42680 10.50170 -43.89430 -12.44190 -23.71090 -2.09325 -7.88285 38.88990 10.78340 
9.78634 95.30530 15.91530 -30.16330 -60.52620 -140.71899 -29.54030 3.93941 6.91235 -30.07920 14.50820 7.75833 -13.19800 -25.43850 45.34430 -0.00000 0.00000 -0.00000 -74.52930 2.35789 11.79640 127.38100 -85.32930 132.18700 -19.22610 8.97887 9.58951 -10.05900 0.04558 0.31788 65.04550 -19.41750 85.05270 -8.00081 23.76650 85.80620 35.71400 12.61600 4.07287 58.40510 -1.21373 6.40295 -29.17630 54.50980 70.15110 1.83816 38.02690 -0.98745 21.63790 18.62700 -70.68610 -59.81720 -25.42010 -10.10110 38.94170 13.69990 -44.83180 -8.63318 -27.03640 -1.82986 -8.90268 44.01430 11.04620 
10.64090 95.29090 19.23950 -35.34790 -60.63140 -145.82600 -24.77680 6.73327 5.64119 -30.68120 15.76980 9.79010 -15.88560 -25.18040 43.83930 -0.00000 0.00000 -0.00000 -81.02940 2.06346 10.66780 137.67999 -83.56360 143.44501 -16.35900 9.04140 10.07030 -12.00240 -0.07080 1.62845 66.28880 -14.32120 91.94710 -10.49850 24.25490 87.13470 35.60850 12.71290 4.39978 63.38180 -1.69809 -13.11640 -33.91490 29.78710 83.41310 1.09399 31.86500 -0.58716 25.70310 21.85940 -77.13640 -62.51580 -27.54380 -13.45100 38.05320 16.83880 -47.60940 -4.04608 -29.27230 -1.12050 -9.72469 47.79770 11.31450 
10.48430 95.42940 22.76530 -40.41330 -61.17700 -149.36301 -21.22000 8.33927 4.48254 -30.56400 16.83640 11.18500 -19.34900 -24.04830 41.01970 -0.00000 0.00000 -0.00000 -86.01470 2.20922 8.97359 147.33099 -81.29300 153.36200 -13.83830 9.24291 9.48609 -13.64610 -0.18843 2.52886 67.86290 -8.61713 96.61970 -12.95190 24.67950 88.02730 35.22690 12.77530 4.69399 64.00160 -7.38228 -21.98020 -27.43560 20.05910 79.71790 -9.31184 17.42420 1.91235 28.69300 46.03590 -65.31510 -66.67850 -29.40430 -14.56980 37.04370 20.86390 -51.53130 1.27358 -31.24270 -0.05849 -10.29660 51.17570 11.23800 
8.42109 96.37690 27.40950 -44.73070 -61.66180 -151.71800 -15.86450 8.38868 3.62323 -28.98600 17.35620 11.99560 -22.88450 -22.16240 37.52080 -0.00000 0.00000 -0.00000 -89.65390 2.41802 7.30211 155.21600 -78.82920 160.81500 -12.80580 9.37076 8.79476 -14.78400 -0.31131 3.45603 69.70720 -2.86513 98.73320 -14.83070 25.04830 88.87010 34.49100 12.79220 4.94859 62.27590 -19.19070 -23.35010 -20.97940 27.73980 75.19020 -29.43800 -1.00587 1.73871 -5.35335 66.72670 -11.40400 -71.85580 -30.43270 -13.23490 35.85320 24.43880 -56.25770 8.49382 -31.76450 1.54815 -10.40830 54.74980 10.35850 
4.99405 97.28310 31.71790 -50.61470 -61.67240 -156.45500 -11.88950 6.72898 4.26932 -26.94750 17.24580 12.67500 -25.86880 -20.07090 33.97020 -0.00000 0.00000 -0.00000 -92.44410 2.23872 5.94581 162.33000 -76.37010 166.78101 -13.46180 9.36099 8.66510 -15.13090 -0.45420 4.88069 71.65350 2.08708 98.41320 -15.59090 25.38320 89.86590 33.42080 12.79050 5.25108 59.85590 -30.61130 -22.94810 -16.12330 38.75210 74.03740 -51.62890 -14.31030 -3.19491 -31.09180 58.94320 25.82450 -76.95050 -30.81770 -10.43620 34.81440 27.40290 -59.87800 16.72850 -31.87720 3.41183 -9.83066 58.55730 8.44112 
1.80330 97.69940 34.55020 -55.81760 -60.49240 -161.74300 -9.89893 4.93420 6.07592 -25.40120 17.16290 13.95960 -27.95860 -18.56430 30.80220 -0.00000 0.00000 -0.00000 -94.97280 1.54128 4.98070 169.02400 -74.12230 171.73199 -15.03050 9.22349 9.23246 -14.56360 -0.60244 7.03701 73.45580 5.68229 96.30920 -15.01170 25.78230 90.90660 32.31940 12.80650 5.64270 59.37060 -39.13460 -20.89090 -13.98060 45.88410 73.27130 -65.14250 -21.08200 -8.66850 -30.40900 48.71540 31.33350 -79.67670 -30.91890 -8.06357 33.86640 29.38760 -61.28160 23.58150 -32.52810 5.12932 -8.75507 61.74490 6.11102 
